<?xml version="1.0" standalone="no"?>
<!DOCTYPE svg PUBLIC "-//W3C//DTD SVG 20010904//EN"
 "http://www.w3.org/TR/2001/REC-SVG-20010904/DTD/svg10.dtd">
<svg version="1.0" xmlns="http://www.w3.org/2000/svg"
 width="144.000000pt" height="72.000000pt" viewBox="0 0 144.000000 72.000000"
 preserveAspectRatio="xMidYMid meet">
<metadata>
Created by potrace 1.15, written by Peter Selinger 2001-2017
</metadata>
<g transform="translate(0.000000,72.000000) scale(0.100000,-0.100000)"
fill="#000000" stroke="none">
<path d="M33 328 l2 -223 43 1 c23 0 45 3 48 7 6 6 7 27 2 92 -4 53 11 67 67
63 l46 -3 5 -79 c2 -44 6 -82 8 -84 3 -2 23 -1 46 3 l41 7 -2 69 c-1 38 0 72
3 75 6 5 3 51 -7 146 -3 25 -2 49 3 52 4 2 6 23 4 45 -4 44 -23 56 -73 49 -23
-3 -24 -6 -24 -96 l0 -92 -56 0 -56 0 -7 41 c-4 22 -3 46 1 52 10 17 3 81 -10
89 -7 4 -29 8 -49 8 l-37 0 2 -222z"/>
<path d="M578 523 c-5 -81 -4 -150 4 -165 4 -9 4 -19 0 -22 -7 -4 -9 -86 -4
-193 2 -41 4 -43 33 -43 55 0 67 13 65 72 -1 29 -5 59 -9 66 -5 7 -3 12 5 11
14 0 108 -121 108 -139 0 -13 41 -13 74 0 28 10 35 44 12 57 -7 4 -21 23 -30
41 -9 17 -21 32 -26 32 -6 0 -10 9 -10 20 0 11 -4 20 -10 20 -5 0 -10 5 -10
11 0 7 -9 19 -20 29 -21 18 -17 60 6 60 8 0 14 6 14 13 0 17 27 48 55 63 13 7
21 24 23 46 3 33 1 36 -33 41 -34 6 -40 2 -91 -49 -30 -31 -59 -63 -65 -72 -9
-14 -9 -14 -3 3 13 32 8 106 -7 116 -8 5 -29 9 -46 9 -29 0 -33 -3 -35 -27z"/>
<path d="M1098 518 c0 -18 -2 -46 -3 -63 -1 -16 1 -49 5 -73 4 -23 5 -44 1
-46 -5 -4 -6 -55 -2 -196 1 -39 2 -40 35 -40 51 0 67 21 60 78 -3 26 -7 52 -9
59 -5 16 27 26 37 11 4 -7 11 -24 15 -38 3 -13 15 -33 26 -45 10 -11 23 -30
28 -42 9 -23 47 -31 83 -17 23 9 19 50 -6 71 -13 10 -24 25 -26 33 -2 8 -8 18
-14 21 -6 4 -7 12 -3 18 4 7 1 19 -6 27 -10 12 -9 17 4 27 54 40 55 167 2 209
-37 29 -63 35 -152 37 l-73 1 -2 -32z"/>
<path d="M433 498 c-45 -70 -85 -158 -79 -173 3 -8 14 -15 25 -15 38 0 51 -11
51 -44 0 -18 5 -37 12 -44 19 -19 49 -14 55 8 3 11 9 20 14 20 4 0 7 12 5 28
-1 17 5 32 16 40 25 18 23 41 -7 68 -25 23 -33 58 -16 68 16 10 0 44 -22 50
-33 9 -45 7 -54 -6z"/>
<path d="M937 348 c-15 -14 -24 -33 -23 -48 1 -22 6 -25 38 -24 21 1 35 -3 32
-7 -3 -5 -11 -9 -19 -9 -8 0 -16 -4 -20 -10 -8 -12 16 -50 32 -50 7 0 13 -7
13 -15 0 -17 -12 -19 -26 -5 -8 8 -19 8 -38 0 -22 -8 -26 -14 -20 -33 13 -42
25 -49 81 -45 28 3 59 10 67 17 19 16 22 101 4 119 -9 9 -9 12 0 12 16 0 16
68 -1 84 -40 41 -86 46 -120 14z"/>
</g>
</svg>
